<?xml version="1.0" encoding="UTF-8"?>
<svg width="24" height="24" viewBox="0 0 24 24" fill="none" xmlns="http://www.w3.org/2000/svg">
  <rect width="24" height="24" rx="6" fill="url(#gradient)"/>
  <path d="M16.5 8H19C19.5523 8 20 8.44772 20 9V11.5M7.5 16H5C4.44772 16 4 15.5523 4 15V12.5" stroke="white" stroke-width="2" stroke-linecap="round"/>
  <path d="M16.5 8C16.5 8 14.5 8 13 8C11.5 8 10 9.5 10 11C10 12.5 11.5 14 13 14C14.5 14 16.5 14 16.5 14" stroke="white" stroke-width="2" stroke-linecap="round"/>
  <path d="M7.5 16C7.5 16 9.5 16 11 16C12.5 16 14 14.5 14 13C14 11.5 12.5 10 11 10C9.5 10 7.5 10 7.5 10" stroke="white" stroke-width="2" stroke-linecap="round"/>
  <defs>
    <linearGradient id="gradient" x1="0" y1="0" x2="24" y2="24" gradientUnits="userSpaceOnUse">
      <stop stop-color="#7C3AED"/>
      <stop offset="1" stop-color="#A855F7"/>
    </linearGradient>
  </defs>
</svg> 