<?xml version="1.0" encoding="UTF-8"?>
<svg width="24" height="24" viewBox="0 0 24 24" fill="none" xmlns="http://www.w3.org/2000/svg">
  <rect width="24" height="24" rx="6" fill="url(#gradient)"/>
  <path d="M6 6C4 6 4 8 4 9C4 10 4 11 6 12C4 13 4 14 4 15C4 16 4 18 6 18" stroke="white" stroke-width="2" stroke-linecap="round"/>
  <path d="M18 6C20 6 20 8 20 9C20 10 20 11 18 12C20 13 20 14 20 15C20 16 20 18 18 18" stroke="white" stroke-width="2" stroke-linecap="round"/>
  <path d="M10 9H14M10 12H14M10 15H14" stroke="white" stroke-width="2" stroke-linecap="round"/>
  <defs>
    <linearGradient id="gradient" x1="0" y1="0" x2="24" y2="24" gradientUnits="userSpaceOnUse">
      <stop stop-color="#8B5CF6"/>
      <stop offset="1" stop-color="#6366F1"/>
    </linearGradient>
  </defs>
</svg> 
