<?xml version="1.0" standalone="no"?><!DOCTYPE svg PUBLIC "-//W3C//DTD SVG 1.1//EN" "http://www.w3.org/Graphics/SVG/1.1/DTD/svg11.dtd"><svg t="1744253618455" class="icon" viewBox="0 0 1024 1024" version="1.1" xmlns="http://www.w3.org/2000/svg" p-id="6733" xmlns:xlink="http://www.w3.org/1999/xlink" width="200" height="200"><path d="M0 256m102.4 0l819.2 0q102.4 0 102.4 102.4l0 563.2q0 102.4-102.4 102.4l-819.2 0q-102.4 0-102.4-102.4l0-563.2q0-102.4 102.4-102.4Z" fill="#D24425" p-id="6734"></path><path d="M768 0a102.4 102.4 0 0 1 102.4 102.4v870.912a51.2 51.2 0 0 0 51.2 50.688l-51.2-0.064V1024h-768A102.4 102.4 0 0 1 0 921.6V102.4A102.4 102.4 0 0 1 102.4 0H768z" fill="#F67138" p-id="6735"></path><path d="M153.6 486.4V128H256v51.2h-51.2v256H256v51.2H153.6zM742.4 486.4V128H640v51.2h51.2v256H640v51.2h102.4z" fill="#FFDCB7" fill-opacity=".6" p-id="6736"></path><path d="M319.744 384a39.68 39.68 0 0 0 27.776-10.688 39.296 39.296 0 0 0 10.88-27.968 38.08 38.08 0 0 0-10.88-27.52 38.784 38.784 0 0 0-27.776-10.624c-10.88 0-19.84 3.584-26.752 10.688a34.816 34.816 0 0 0-11.392 27.456c0 11.2 3.456 20.352 11.392 27.52A36.096 36.096 0 0 0 319.744 384zM447.744 384a39.68 39.68 0 0 0 27.776-10.688 39.296 39.296 0 0 0 10.88-27.968 38.08 38.08 0 0 0-10.88-27.52 38.784 38.784 0 0 0-27.776-10.624c-10.88 0-19.84 3.584-26.752 10.688a34.816 34.816 0 0 0-11.392 27.456c0 11.2 3.456 20.352 11.392 27.52A36.096 36.096 0 0 0 447.744 384zM575.744 384a39.68 39.68 0 0 0 27.776-10.688 39.296 39.296 0 0 0 10.88-27.968 38.08 38.08 0 0 0-10.88-27.52 38.784 38.784 0 0 0-27.776-10.624c-10.88 0-19.84 3.584-26.752 10.688a34.816 34.816 0 0 0-11.392 27.456c0 11.2 3.456 20.352 11.392 27.52A36.096 36.096 0 0 0 575.744 384z" fill="#FFDCB7" p-id="6737"></path><path d="M202.944 896v-84.352L272.384 665.6h-48l-23.04 56.064c-6.464 17.088-13.312 33.28-20.48 51.072h-1.28c-7.168-17.792-13.376-33.92-19.904-51.072l-23.04-56.064h-48.896l69.12 146.048V896h46.08z m81.152 0l16.192-59.136H375.04l16.192 59.136h48.256l-74.112-230.4h-54.144L237.44 896h46.72z m80.96-94.976h-54.784l6.848-25.216c6.848-23.936 13.696-50.112 19.584-75.328h1.28c6.848 24.96 13.056 51.392 20.224 75.328l6.848 25.216zM482.048 896v-96.192c0-21.76-3.776-53.888-5.952-75.648h1.28l18.368 54.144 35.84 96.832h26.432l35.456-96.832 18.688-54.144h1.28c-2.176 21.76-5.632 53.824-5.632 75.648V896h42.048v-230.4h-51.072l-38.272 107.712c-4.992 14.336-9.024 29.568-14.08 44.544h-1.536c-4.672-14.976-8.96-30.208-13.952-44.544L491.712 665.6h-51.072V896h41.408z m337.984 0v-38.592h-93.44V665.6h-46.08V896h139.52z" fill="#FFFFFF" p-id="6738"></path></svg>